<?xml version="1.0" standalone="no"?>
<!DOCTYPE svg PUBLIC "-//W3C//DTD SVG 20010904//EN"
 "http://www.w3.org/TR/2001/REC-SVG-20010904/DTD/svg10.dtd">
<svg version="1.0" xmlns="http://www.w3.org/2000/svg"
 width="512.000000pt" height="512.000000pt" viewBox="0 0 512.000000 512.000000"
 preserveAspectRatio="xMidYMid meet">
<metadata>
Created by potrace 1.14, written by Peter Selinger 2001-2017
</metadata>
<g transform="translate(0.000000,512.000000) scale(0.100000,-0.100000)"
fill="#000000" stroke="none">
<path d="M2021 5048 c-48 -17 -39 -52 84 -313 60 -127 136 -298 133 -300 -2
-1 -34 -12 -73 -24 -155 -51 -366 -146 -504 -226 -139 -82 -344 -239 -356
-273 -3 -9 -23 -30 -45 -45 -47 -33 -122 -100 -205 -182 -286 -282 -500 -679
-579 -1077 -33 -165 -40 -234 -40 -423 -1 -165 7 -262 29 -380 4 -22 9 -48 11
-59 31 -172 121 -414 222 -596 262 -471 700 -832 1205 -995 253 -82 381 -100
682 -99 232 1 309 10 506 60 511 128 965 456 1262 909 138 213 266 530 302
755 3 19 8 42 10 50 4 17 15 104 21 165 5 51 5 332 0 365 -2 14 -6 54 -11 90
-43 382 -221 788 -477 1095 -83 100 -230 243 -314 307 -30 22 -60 51 -67 63
-15 28 -100 101 -197 169 -184 129 -407 241 -643 322 l-134 45 -31 67 c-87
187 -119 258 -174 377 -32 72 -66 137 -74 145 -12 12 -58 15 -269 15 -140 0
-263 -3 -274 -7z m606 -403 l134 -291 132 -43 c226 -75 421 -165 582 -269 97
-63 99 -66 35 -58 -30 4 -75 9 -100 12 -25 3 -56 7 -70 10 -14 2 -57 7 -96 10
-66 6 -72 5 -87 -16 -18 -26 -20 -16 52 -328 53 -233 56 -251 37 -239 -304
199 -473 259 -716 252 -196 -6 -387 -75 -599 -217 l-73 -50 6 29 c4 15 8 37
10 48 3 11 27 118 55 238 28 120 51 227 51 237 0 39 -28 52 -99 46 -36 -4 -77
-8 -91 -11 -14 -2 -47 -6 -75 -9 -27 -3 -75 -8 -105 -11 l-55 -6 85 56 c165
108 421 225 633 290 130 39 129 34 27 258 -46 100 -100 219 -122 265 -21 46
-38 85 -38 88 0 2 79 3 177 2 l176 -3 134 -290z m-784 -777 c-19 -100 -53
-223 -62 -226 -26 -9 -193 -119 -254 -169 -306 -247 -531 -619 -593 -983 -3
-14 -7 -30 -9 -37 -7 -22 -19 -185 -19 -273 0 -271 61 -519 185 -760 176 -340
470 -615 819 -765 84 -36 281 -97 350 -109 162 -27 437 -28 580 -3 96 18 297
73 315 87 6 4 21 11 35 15 54 16 285 139 310 165 3 3 32 25 65 50 357 265 598
692 649 1149 7 62 8 283 2 321 -2 14 -7 48 -10 75 -60 490 -378 964 -817 1213
l-56 31 -26 118 c-15 65 -27 121 -27 124 0 6 11 6 90 -5 25 -3 86 -10 135 -16
50 -6 104 -13 120 -15 17 -2 39 -4 51 -4 30 -1 171 -109 281 -215 270 -258
463 -586 557 -946 14 -52 27 -111 30 -130 3 -19 8 -47 11 -61 23 -118 30 -393
14 -524 -14 -114 -23 -175 -35 -225 -3 -14 -8 -36 -10 -50 -3 -14 -25 -85 -50
-159 -146 -440 -446 -819 -848 -1075 -152 -97 -405 -205 -566 -242 -133 -30
-177 -37 -315 -53 -79 -9 -361 -6 -415 4 -19 3 -51 8 -70 10 -19 2 -69 11
-110 20 -373 78 -734 272 -1000 537 -58 58 -82 84 -175 193 -52 62 -156 224
-208 327 -288 564 -296 1229 -21 1793 146 301 375 576 624 753 53 37 60 39
200 56 80 10 168 20 195 23 28 3 52 7 54 9 2 2 10 4 17 4 10 0 12 -9 7 -32z
m663 -494 c0 -193 1 -197 23 -215 30 -24 46 -24 71 1 19 19 20 33 20 215 l0
195 28 0 c98 -2 316 -87 460 -180 l63 -41 -36 -65 c-41 -73 -42 -102 -3 -124
36 -20 54 -9 93 58 17 28 34 51 39 52 4 0 24 -13 43 -30 37 -33 73 -38 97 -14
21 20 20 40 -8 159 -14 55 -23 101 -21 103 12 12 205 -139 292 -229 68 -70
158 -181 186 -228 l17 -30 -92 -54 c-51 -30 -123 -71 -159 -92 -80 -45 -95
-65 -77 -102 26 -53 44 -49 219 53 89 52 164 94 166 94 7 0 83 -167 83 -182 0
-8 4 -18 9 -23 14 -15 68 -242 76 -315 12 -123 12 -140 1 -141 -6 0 -130 -2
-274 -2 -262 -2 -264 -2 -282 -25 -15 -18 -17 -28 -8 -52 12 -36 -12 -33 293
-36 132 -1 250 -3 262 -3 20 -1 21 -5 17 -63 -7 -103 -44 -276 -81 -382 -31
-90 -88 -216 -97 -216 -2 0 -70 38 -150 85 -182 106 -189 109 -215 87 -25 -22
-33 -53 -18 -73 7 -9 73 -51 147 -94 196 -113 182 -103 171 -124 -41 -76 -185
-240 -295 -335 -61 -53 -177 -138 -182 -134 -1 2 -41 71 -89 153 -48 83 -94
158 -102 168 -20 21 -42 22 -71 1 -39 -27 -36 -37 92 -257 31 -53 59 -104 62
-112 9 -22 -153 -93 -316 -139 -69 -19 -219 -44 -285 -48 l-50 -2 -5 278 c-5
260 -6 279 -24 292 -26 19 -39 18 -67 -5 -23 -18 -23 -20 -24 -287 -1 -148 -3
-272 -4 -276 0 -4 -7 -6 -13 -3 -7 2 -44 6 -83 9 -166 13 -365 70 -519 148
l-45 23 93 163 c52 90 93 169 92 175 -10 45 -32 61 -72 51 -18 -5 -46 -44
-115 -165 -51 -87 -96 -159 -101 -159 -29 0 -184 124 -286 229 -71 73 -192
230 -192 248 1 4 64 44 142 88 77 44 151 88 164 98 41 32 23 100 -27 99 -13 0
-49 -14 -79 -32 -52 -31 -76 -45 -152 -89 -18 -10 -49 -28 -68 -39 -19 -12
-38 -22 -42 -22 -9 0 -93 205 -116 285 -18 61 -29 108 -47 203 -10 55 -16 172
-8 173 4 0 129 1 276 2 253 2 269 3 283 21 18 25 18 47 0 72 -14 18 -30 19
-283 21 -147 0 -272 2 -277 2 -11 1 2 137 25 251 27 132 110 367 145 408 1 2
30 -12 64 -32 33 -20 63 -36 66 -36 3 0 25 -13 49 -30 24 -16 46 -30 50 -30 3
0 24 -12 47 -26 23 -15 52 -26 65 -26 46 0 70 64 36 94 -10 8 -49 33 -88 55
-38 23 -90 53 -115 67 -25 15 -60 34 -77 43 -18 9 -33 21 -33 27 0 9 70 109
116 166 25 31 151 158 190 191 40 34 175 129 184 129 4 0 -4 -44 -17 -97 -13
-54 -24 -110 -25 -125 -3 -63 57 -77 113 -28 19 16 37 30 41 30 3 0 21 -25 38
-54 42 -75 93 -87 119 -30 10 23 7 34 -24 89 -19 35 -35 66 -35 69 0 9 83 62
170 108 120 64 269 113 351 117 l26 1 -1 -196z"/>
<path d="M2452 4093 c-131 -27 -286 -107 -296 -152 -11 -53 59 -85 103 -48 23
20 117 62 179 81 66 19 218 15 279 -7 23 -9 77 -34 118 -56 45 -23 83 -37 93
-34 31 11 42 25 42 54 0 22 -9 34 -42 57 -143 97 -324 137 -476 105z"/>
<path d="M2924 2890 c-13 -5 -94 -135 -219 -351 l-199 -344 0 -192 c0 -208 4
-223 54 -223 54 0 60 19 60 209 l0 173 98 169 c53 94 105 184 115 201 116 197
167 294 167 313 0 13 -10 31 -22 39 -25 18 -25 18 -54 6z"/>
</g>
</svg>
